<?xml version="1.0" encoding="UTF-8" standalone="no"?>
<svg
   version="1.1"
   viewBox="0 0 47.999999 47.739006"
   id="svg180"
   xml:space="preserve"
   width="48"
   height="47.739006"
   xmlns="http://www.w3.org/2000/svg"
   xmlns:svg="http://www.w3.org/2000/svg"><defs
     id="defs184"><style
       id="style701">.cls-1{fill:#eef0f4;}.cls-2{fill:#53c6d6;}.cls-3{fill:#012169;}.cls-4{fill:none;stroke:#012169;stroke-linecap:round;stroke-linejoin:round;stroke-width:4px;}</style></defs><g
     id="g1538"
     transform="matrix(-0.04197035,-0.06982195,0.07284526,-0.04097526,15.529806,56.184815)"
     style="display:inline;fill:#cae5f8;fill-opacity:1"><path
       fill="#0d82e2"
       d="m 554.65111,273.76356 -0.23,-7 a 1.19,1.19 0 0 0 -0.36,-0.83 q -1.13,-1.07 -1.23,-2.67 -0.17,-2.78 -0.2,-2.99 -0.27,-1.67 -0.15,-3.36 0.14,-1.94 -0.11,-3.3 -0.89,-4.93 -2.18,-15.1 -0.91,-7.2 -3.47,-16.97 -0.04,-0.17 -3.6,-14.67 -2.31,-9.46 -6.24,-19.05 -0.88,-2.14 -1.35,-4.83 -0.52,-2.97 -1.26,-4.81 -7.92,-19.87 -18.42,-38.54 -6.18,-10.97 -12.72,-19.57 -6.14,-8.05 -10.43,-15.13 -0.11,-0.17 -0.24,-0.93 -0.08,-0.47 -0.52,-1 -4.38,-5.240003 -8.81,-10.440003 -1.9,-2.22 -3.55,-3.53 -3.6,-2.86 -3.83,-3.09 -5.47,-5.46 -11.1,-10.77 -0.63,-0.6 -1.07,-1.58 -0.51,-1.13 -1.08,-1.65 -4.67,-4.31 -14.87,-12.63 -0.68,-0.55 -0.76,0.14 a 0.35,0.39 11.7 0 1 -0.46,0.34 q -2.36,-0.8 -4.05,-2.45 -3.02,-2.93 -3.34,-3.17 -10.66,-7.89 -22.02,-14.74 -1.07,-0.64 -2.85,-2.21 -1.38,-1.21 -3.01,-2.05 -4.09,-2.1 -4.23,-2.18 -1.99,-1.19 -4.08,-2.23 -1.03,-0.51 -3.05,-0.88 -1.63,-0.3 -3.1,-1.05 -2.63,-1.33 -2.7,-1.37 -4.99,-2.13 -9.94,-4.35 -11.33,-5.09 -23.24,-8.63 -0.89,-0.27 -2.66,-1.21 -1.34,-0.73 -2.84,-0.94 -2.59,-0.36 -2.69,-0.38 -5.44,-1.21 -10.89,-2.3499999 -0.95,-0.2 -3.96,-0.63 -1.99,-0.28 -3.92,-0.82 -5.47,-1.55 -5.75,-1.61 -14.59,-3.19 -25.65,-4.29 -26.05,-2.58999997 -55,0.25 -1.36,0.13 -4.75,-0.46 98.25,-11.28 180.76,39.3999999 8.53,5.24 16.61,11.14 70.53,51.450003 99.69,134.360003 14.65,41.63 14.9,86.81 z"
       id="path1496"
       style="fill:#cae5f8;fill-opacity:1" /><path
       fill="#0086ff"
       d="m 554.65111,273.76356 c 0.44,1.68 0.45333,3.36 0.04,5.04 -0.0333,2.54 -0.36,5.02667 -0.98,7.46 -0.68667,2.69333 -1.06667,5.41 -1.14,8.15 -0.11333,4.30667 -0.24333,7.02667 -0.39,8.16 -1.06,8.17333 -2.29333,16.32333 -3.7,24.45 -0.91333,5.3 -1.76,9.04667 -2.54,11.24 -0.72667,2.04667 -1.25667,3.86333 -1.59,5.45 -0.68,3.22667 -1.09,5.06333 -1.23,5.51 -1.51333,5.02667 -3.02333,10.05333 -4.53,15.08 -3.85333,12.84667 -8.88333,25.18 -15.09,37 -3.33333,6.34 -6.21667,11.61667 -8.65,15.83 -3.02,5.22 -6.34,10.24667 -9.96,15.08 -4.34667,5.80667 -6.55667,8.76 -6.63,8.86 -3.06,4.21333 -6.17,8.38667 -9.33,12.52 -0.89333,1.18 -2.03333,2.79333 -3.42,4.84 -1.74667,2.58 -3.02,4.10667 -3.82,4.58 -1.71333,1.01333 -3.16333,2.29 -4.35,3.83 -2.06,2.68 -3.10667,4.03667 -3.14,4.07 -5.36667,5.73333 -11.6,11.20333 -18.7,16.41 -3.29333,2.42 -5.92333,4.34667 -7.89,5.78 -2.35333,1.70667 -4.93667,3.69333 -7.75,5.96 -13.42667,10.82667 -28.06,19.72333 -43.9,26.69 -0.26161,0.11108 -0.59083,0.1492 -0.95,0.11 -0.78667,-0.0867 -1.54,0.0667 -2.26,0.46 -1.36667,0.76 -2.32333,0.34333 -2.87,-1.25 -1.38,-3.98 -3.47667,-7.52333 -6.29,-10.63 -0.1965,-0.22121 -0.25049,-0.54128 -0.14,-0.83 0.53333,-1.37333 0.03,-1.56 -1.51,-0.56 -3.14667,-7.64667 -7.24333,-14.74333 -12.29,-21.29 -0.47333,-1.2 -0.88333,-2.41667 -1.23,-3.65 -0.37333,-1.3 -0.97667,-2.38333 -1.81,-3.25 -3.98667,-4.13333 -8.23667,-7.97333 -12.75,-11.52 -1.58,-1.24 -3.69667,-2.53667 -6.35,-3.89 -2.22667,-1.14 -4.4,-2.38333 -6.52,-3.73 -1.99333,-1.26 -4.15667,-2.07667 -6.49,-2.45 -0.32667,-0.0533 -0.62333,-0.17667 -0.89,-0.37 -1.98667,-1.48667 -4.19333,-2.53333 -6.62,-3.14 -5.27333,-1.32 -10.52667,-2.71333 -15.76,-4.18 -0.25838,-0.0707 -0.42434,-0.33455 -0.39,-0.62 0.0867,-0.84667 -0.11,-1.61333 -0.59,-2.3 -0.20091,-0.29155 -0.30629,-0.60769 -0.3,-0.9 0.0533,-4.31333 -0.0167,-8.62667 -0.21,-12.94 -0.08,-1.76 0.4,-3.29667 1.44,-4.61 0.18597,-0.24278 0.48626,-0.40197 0.83,-0.44 3.14,-0.38 6.18333,-1.14 9.13,-2.28 3.64,-1.40667 7.33333,-2.62333 11.08,-3.65 4.98667,-1.36667 8.68,-2.54 11.08,-3.52 5.83333,-2.4 12.21333,-5.33667 19.14,-8.81 9.95333,-4.99333 18.57,-11.12667 25.85,-18.4 2.41333,-2.42 4.82667,-4.84333 7.24,-7.27 2.75333,-2.78 5.00667,-5.33667 6.76,-7.67 4.00667,-5.32667 7.54333,-10.95 10.61,-16.87 1.26,-2.42667 2.89333,-6.24 4.9,-11.44 1.49333,-3.87333 3.08,-7.71 4.76,-11.51 0.46667,-1.06 0.30333,-1.70667 -0.49,-1.94 -0.22691,-0.0715 -0.45587,-0.24765 -0.65,-0.5 -0.20667,-0.27333 -0.43667,-0.15667 -0.69,0.35 l 2.58,-10.51 c 0.0878,-0.34531 0.30064,-0.61418 0.57,-0.72 l 0.56,-0.23 c 8.22,-0.69333 15.36667,-2.81 21.44,-6.35 10.3,-6.01333 15.47333,-15.32667 15.52,-27.94 0.02,-5.39333 0.0333,-10.78333 0.04,-16.17 0.007,-7.67333 -0.35667,-13.03333 -1.09,-16.08 -2.47333,-10.26 -8.96333,-17.57333 -19.47,-21.94 -0.89333,-0.36667 -1.30333,-0.97 -1.23,-1.81 l -0.25,-61.25 c 5.78,-2.12667 9.96,-5.60333 12.54,-10.43 2.49333,-4.67333 3.06667,-9.67667 1.72,-15.01 -1.41333,-5.59333 -4.71333,-9.79667 -9.9,-12.61 -3.4,-1.84 -6.96,-2.68667 -10.68,-2.54 -4.00667,0.16667 -7.62667,1.38 -10.86,3.64 -2.94,2.05333 -5.22,4.70667 -6.84,7.96 -1.72,3.44667 -2.36667,7.02667 -1.94,10.74 1.00667,8.83333 5.92333,14.84667 14.75,18.04 v 59.67 l -4.93,-0.33 c -0.53741,-0.0349 -0.99657,-0.42554 -1.14,-0.97 -7.66,-28.71333 -22.91667,-51.60333 -45.77,-68.67 -5.14,-3.84 -10.77,-7.39333 -16.89,-10.66 -17.55333,-9.36667 -36.56,-15.31 -57.02,-17.83 -25.93333,-3.19333 -51.14333,-1.43667 -75.63,5.27 -16.31333,4.46 -30.83333,11.05667 -43.56,19.79 -166.206184,132.47065 50.28429,-3.90216 -78.75,80 -5.386667,5.31333 -8.953333,11.18333 -10.7,17.61 -0.453333,1.67333 -1.07,3.28 -1.85,4.82 -1.606667,3.15333 -1.756667,6.38667 -0.45,9.7 0.413333,1.04667 1.046667,3.98333 1.9,8.81 l 0.25,10.5 c -0.54,1.28667 -0.936667,2.60667 -1.19,3.96 -0.233333,1.23333 -0.04667,2.54 0.56,3.92 1.426667,3.28 2.816667,6.57667 4.17,9.89 0.666667,1.64667 1.623333,3.11333 2.87,4.4 1.56667,1.62667 3.11667,3.26667 4.65,4.92 0.04,0.0333 0.49667,0.65333 1.37,1.86 0.52,0.72 1.19,1.23333 2.01,1.54 1.87333,0.7 2.84333,1.07 2.91,1.11 3.46,1.86667 6.94,3 10.44,3.4 1.76,0.2 3.32,0.47667 4.68,0.83 1.67333,0.43333 2.91667,1.29333 3.73,2.58 0.96,1.51333 1.46667,3.18 1.52,5 0.0533,1.75333 0.23333,3.07333 0.54,3.96 2.14,6.18667 4.55667,12.26333 7.25,18.23 0.46,1.02 1.21333,2.11667 2.26,3.29 1.02667,1.14667 1.78333,2.26667 2.27,3.36 1.89333,4.22667 3.98667,7.87667 6.28,10.95 0.61333,0.82 1.30667,1.93 2.08,3.33 0.73333,1.31333 1.55,2.36667 2.45,3.16 2.74667,2.39333 4.74,4.39667 5.98,6.01 1.51333,1.96667 3.22,3.74 5.12,5.32 0.8,0.65333 1.75333,1.58333 2.86,2.79 0.92667,1.00667 1.96,1.88 3.1,2.62 1.36,0.87333 2.58667,1.81667 3.68,2.83 1.32,1.22 2.99,2.44667 5.01,3.68 8.30667,5.06 14.84333,8.85667 19.61,11.39 0.02,0.0133 1.14333,0.53 3.37,1.55 1.76,0.81333 3.35333,1.88 4.78,3.2 0.74667,0.68667 1.47,1.12333 2.17,1.31 0.85333,0.22 1.71333,0.35333 2.58,0.4 1.61333,0.0867 2.86667,0.28 3.76,0.58 5.00667,1.66667 10.04333,3.23667 15.11,4.71 0.18667,0.06 1.68,0.62333 4.48,1.69 1.52,0.58 3.11,0.92 4.77,1.02 0.33742,0.0195 0.64968,0.13884 0.89,0.34 1.49333,1.26 2.3,2.38333 2.42,3.37 0.62667,5.24667 0.59,10.79333 -0.11,16.64 -0.0865,0.7271 -0.58523,1.3388 -1.28,1.57 -4.64,1.53333 -9.50667,3.1 -14.6,4.7 -7.08,2.21333 -11.98,4.01333 -14.7,5.4 -3.7,1.89333 -8.46333,5.13 -14.29,9.71 -10.12,7.95333 -18.17667,17.59 -24.17,28.91 -0.0267,0.0467 -0.67667,1.19333 -1.95,3.44 -0.90667,1.6 -1.63333,3.27667 -2.18,5.03 -1.04667,3.35333 -1.64,5.21667 -1.78,5.59 -0.67333,1.85333 -1.27667,3.73 -1.81,5.63 -0.11333,0.38667 -0.21667,1.32 -0.31,2.8 -0.12,1.85333 -1.29667,2.20667 -3.53,1.06 -4.92,-2.52667 -9.89333,-4.95 -14.92,-7.27 -2.63333,-1.21333 -5.77667,-3.01333 -9.43,-5.4 -4.72667,-3.08667 -8.66333,-5.69667 -11.81,-7.83 -2.36667,-1.6 -6.13667,-4.44 -11.31,-8.52 -4.96667,-3.91333 -10.1,-7.60333 -15.4,-11.07 -2.32,-1.52 -4.366667,-3.05667 -6.14,-4.61 -1.926667,-1.69333 -3.843333,-3.39667 -5.75,-5.11 -0.05333,-0.0467 -1.766667,-1.45333 -5.14,-4.22 -1.933333,-1.58 -3.686667,-3.36 -5.26,-5.34 -0.74,-0.93333 -1.533333,-1.80667 -2.38,-2.62 -1.126667,-1.08 -1.94,-1.92333 -2.44,-2.53 -3.66,-4.42667 -7.123333,-9 -10.39,-13.72 -3.626667,-5.25333 -6.953333,-9.91333 -9.98,-13.98 -13.546667,-18.2 -24.31,-37.95333 -32.29,-59.26 -0.9,-2.40667 -2.263333,-5.72667 -4.09,-9.96 -1.84,-4.26 -2.943333,-7.69 -3.31,-10.29 -0.32,-2.25333 -1.07,-4.33667 -2.25,-6.25 -0.4,-0.65333 -0.67,-1.34 -0.81,-2.06 -0.306666,-1.61333 -1.0366663,-2.99667 -2.1899996,-4.15 -13.2066669,-54.25333 -10.4433337,-107.6 8.2899996,-160.04 l 4.2,-6.57 c 0.148774,-0.2393 0.208987,-0.56516 0.17,-0.92 -0.113333,-0.90667 0.18,-1.66333 0.88,-2.27 0.286667,-0.24667 0.483333,-0.5 0.59,-0.76 6.333333,-15.11333 13.946667,-29.52 22.84,-43.22 2.473333,-3.80667 5.886667,-8.46 10.24,-13.96 4.046667,-5.12 7.58,-9.7 10.6,-13.74 6.973333,-9.333335 14.613333,-17.690003 22.92,-25.070003 8.626667,-7.666667 17.6,-14.886667 26.92,-21.66 7.76,-5.646667 13.18667,-9.51 16.28,-11.59 9.85333,-6.626667 21.02333,-12.643333 33.51,-18.05 10.91333,-4.733333 19.57667,-8.103333 25.99,-10.11 0.0133,-0.0067 0.73667,-0.2 2.17,-0.58 1.84,-0.486667 3.84333,-1.373333 6.01,-2.66 0.3,-0.173333 0.62,-0.286667 0.96,-0.34 4.19333,-0.626667 7.75333,-1.46 10.68,-2.4999999 0.85333,-0.3066667 2.35333,-0.64 4.5,-1 2.71333,-0.46 5.39667,-1.0433333 8.05,-1.75 0.08,-0.02 0.85,-0.1333333 2.31,-0.34 0.86,-0.12 1.62333,-0.4733333 2.29,-1.06 0.24428,-0.2187732 0.54369,-0.3399644 0.84,-0.34 2.73333,0.04 5.23667,-0.6433333 7.51,-2.05 l 5.75,-0.92 c 2.26,0.3933333 3.84333,0.5466667 4.75,0.46 19.3,-1.89333331 37.63333,-1.97666665 55,-0.25 7.37333,0.7333333 15.92333,2.1633333 25.65,4.29 0.18667,0.04 2.10333,0.5766667 5.75,1.61 1.28667,0.36 2.59333,0.6333333 3.92,0.82 2.00667,0.2866667 3.32667,0.4966667 3.96,0.63 3.63333,0.7599999 7.26333,1.5433329 10.89,2.3499999 0.0667,0.01333 0.96333,0.14 2.69,0.38 1,0.14 1.94667,0.453333 2.84,0.94 1.18,0.626667 2.06667,1.03 2.66,1.21 7.94,2.36 15.68667,5.236667 23.24,8.63 3.3,1.48 6.61333,2.93 9.94,4.35 0.0467,0.02667 0.94667,0.483333 2.7,1.37 0.98,0.5 2.01333,0.85 3.1,1.05 1.34667,0.246667 2.36333,0.54 3.05,0.88 1.39333,0.693333 2.75333,1.436667 4.08,2.23 0.0933,0.05333 1.50333,0.78 4.23,2.18 1.08667,0.56 2.09,1.243333 3.01,2.05 1.18667,1.046667 2.13667,1.783333 2.85,2.21 7.57333,4.566667 14.91333,9.48 22.02,14.74 0.21333,0.16 1.32667,1.216667 3.34,3.17 1.12667,1.1 2.47667,1.916667 4.05,2.45 0.2099,0.0672 0.43148,-0.09658 0.46,-0.34 0.0533,-0.46 0.30667,-0.506667 0.76,-0.14 6.8,5.546667 11.75667,9.756667 14.87,12.63 0.38,0.346667 0.74,0.896667 1.08,1.65 0.29333,0.653333 0.65,1.18 1.07,1.58 3.75333,3.54 7.45333,7.13 11.1,10.77 0.15333,0.153333 1.43,1.183333 3.83,3.09 1.1,0.873333 2.28333,2.05 3.55,3.53 2.95333,3.466667 5.89,6.946668 8.81,10.440003 0.29333,0.35333 0.46667,0.68667 0.52,1 0.0867,0.50667 0.16667,0.81667 0.24,0.93 2.86,4.72 6.33667,9.76333 10.43,15.13 4.36,5.73333 8.6,12.25667 12.72,19.57 7,12.44667 13.14,25.29333 18.42,38.54 0.49333,1.22667 0.91333,2.83 1.26,4.81 0.31333,1.79333 0.76333,3.40333 1.35,4.83 2.62,6.39333 4.7,12.74333 6.24,19.05 2.37333,9.66667 3.57333,14.55667 3.6,14.67 1.70667,6.51333 2.86333,12.17 3.47,16.97 0.86,6.78 1.58667,11.81333 2.18,15.1 0.16667,0.90667 0.20333,2.00667 0.11,3.3 -0.08,1.12667 -0.03,2.24667 0.15,3.36 0.02,0.14 0.0867,1.13667 0.2,2.99 0.0667,1.06667 0.47667,1.95667 1.23,2.67 0.22459,0.21848 0.35395,0.51673 0.36,0.83 z"
       id="path1498"
       style="fill:#cae5f8;fill-opacity:1" /><path
       fill="#0d82e2"
       d="m 236.94111,2.9735571 q -3.41,2.11 -7.51,2.05 a 1.16,1.35 27.4 0 0 -0.84,0.34 q -1,0.88 -2.29,1.06 -2.19,0.31 -2.31,0.34 -3.98,1.06 -8.05,1.75 -3.22,0.54 -4.5,1 -4.39,1.5599999 -10.68,2.4999999 -0.51,0.08 -0.96,0.34 -3.25,1.93 -6.01,2.66 -2.15,0.57 -2.17,0.58 -9.62,3.01 -25.99,10.11 -18.73,8.11 -33.51,18.05 -4.64,3.12 -16.28,11.59 -13.98,10.16 -26.92,21.66 -12.46,11.07 -22.92,25.070003 -4.53,6.06 -10.6,13.74 -6.53,8.25 -10.24,13.96 -13.34,20.55 -22.84,43.22 -0.16,0.39 -0.59,0.76 -1.05,0.91 -0.88,2.27 a 1.59,1.09 66.1 0 1 -0.17,0.92 l -4.2,6.57 q 9.13,-25.98 23.47,-49.49 44.01,-72.150003 120.52,-108.200003 36.49,-17.1999999 76.47,-22.8499999 z"
       id="path1500"
       style="fill:#cae5f8;fill-opacity:1" /><path
       fill="#0d82e2"
       d="m 554.69111,278.80356 q 0.04,40.79 -12.01,79.71 -20.18,65.2 -68.07,113.67 -37.33,37.8 -86.64,59.56 a 0.76,0.77 73 0 1 -1.06,-0.56 q -1.65,-9.02 -4.97,-18.13 2.31,-1.5 1.51,0.56 a 0.79,0.83 34 0 0 0.14,0.83 q 4.22,4.66 6.29,10.63 0.82,2.39 2.87,1.25 1.08,-0.59 2.26,-0.46 a 2.08,1.29 25.1 0 0 0.95,-0.11 q 23.76,-10.45 43.9,-26.69 4.22,-3.4 7.75,-5.96 2.95,-2.15 7.89,-5.78 10.65,-7.81 18.7,-16.41 0.05,-0.05 3.14,-4.07 1.78,-2.31 4.35,-3.83 1.2,-0.71 3.82,-4.58 2.08,-3.07 3.42,-4.84 4.74,-6.2 9.33,-12.52 0.11,-0.15 6.63,-8.86 5.43,-7.25 9.96,-15.08 3.65,-6.32 8.65,-15.83 9.31,-17.73 15.09,-37 2.26,-7.54 4.53,-15.08 0.21,-0.67 1.23,-5.51 0.5,-2.38 1.59,-5.45 1.17,-3.29 2.54,-11.24 2.11,-12.19 3.7,-24.45 0.22,-1.7 0.39,-8.16 0.11,-4.11 1.14,-8.15 0.93,-3.65 0.98,-7.46 z"
       id="path1526"
       style="fill:#cae5f8;fill-opacity:1" /><path
       fill="#0d82e2"
       d="m 219.44111,424.80356 q 1.29,-0.2 2.25,0.67 -1.43,0.4 -2.25,-0.67 z"
       id="path1534"
       style="fill:#cae5f8;fill-opacity:1" /></g><g
     id="g759"
     transform="scale(0.08648782)"
     style="display:inline"><path
       fill="#0d82e2"
       d="m 554.65111,273.76356 -0.23,-7 a 1.19,1.19 0 0 0 -0.36,-0.83 q -1.13,-1.07 -1.23,-2.67 -0.17,-2.78 -0.2,-2.99 -0.27,-1.67 -0.15,-3.36 0.14,-1.94 -0.11,-3.3 -0.89,-4.93 -2.18,-15.1 -0.91,-7.2 -3.47,-16.97 -0.04,-0.17 -3.6,-14.67 -2.31,-9.46 -6.24,-19.05 -0.88,-2.14 -1.35,-4.83 -0.52,-2.97 -1.26,-4.81 -7.92,-19.87 -18.42,-38.54 -6.18,-10.97 -12.72,-19.57 -6.14,-8.05 -10.43,-15.13 -0.11,-0.17 -0.24,-0.93 -0.08,-0.47 -0.52,-1 -4.38,-5.240003 -8.81,-10.440003 -1.9,-2.22 -3.55,-3.53 -3.6,-2.86 -3.83,-3.09 -5.47,-5.46 -11.1,-10.77 -0.63,-0.6 -1.07,-1.58 -0.51,-1.13 -1.08,-1.65 -4.67,-4.31 -14.87,-12.63 -0.68,-0.55 -0.76,0.14 a 0.35,0.39 11.7 0 1 -0.46,0.34 q -2.36,-0.8 -4.05,-2.45 -3.02,-2.93 -3.34,-3.17 -10.66,-7.89 -22.02,-14.74 -1.07,-0.64 -2.85,-2.21 -1.38,-1.21 -3.01,-2.05 -4.09,-2.1 -4.23,-2.18 -1.99,-1.19 -4.08,-2.23 -1.03,-0.51 -3.05,-0.88 -1.63,-0.3 -3.1,-1.05 -2.63,-1.33 -2.7,-1.37 -4.99,-2.13 -9.94,-4.35 -11.33,-5.09 -23.24,-8.63 -0.89,-0.27 -2.66,-1.21 -1.34,-0.73 -2.84,-0.94 -2.59,-0.36 -2.69,-0.38 -5.44,-1.21 -10.89,-2.3499999 -0.95,-0.2 -3.96,-0.63 -1.99,-0.28 -3.92,-0.82 -5.47,-1.55 -5.75,-1.61 -14.59,-3.19 -25.65,-4.29 -26.05,-2.58999997 -55,0.25 -1.36,0.13 -4.75,-0.46 98.25,-11.28 180.76,39.3999999 8.53,5.24 16.61,11.14 70.53,51.450003 99.69,134.360003 14.65,41.63 14.9,86.81 z"
       id="path134" /><path
       fill="#0086ff"
       d="m 554.65111,273.76356 q 0.66,2.52 0.04,5.04 -0.05,3.81 -0.98,7.46 -1.03,4.04 -1.14,8.15 -0.17,6.46 -0.39,8.16 -1.59,12.26 -3.7,24.45 -1.37,7.95 -2.54,11.24 -1.09,3.07 -1.59,5.45 -1.02,4.84 -1.23,5.51 -2.27,7.54 -4.53,15.08 -5.78,19.27 -15.09,37 -5,9.51 -8.65,15.83 -4.53,7.83 -9.96,15.08 -6.52,8.71 -6.63,8.86 -4.59,6.32 -9.33,12.52 -1.34,1.77 -3.42,4.84 -2.62,3.87 -3.82,4.58 -2.57,1.52 -4.35,3.83 -3.09,4.02 -3.14,4.07 -8.05,8.6 -18.7,16.41 -4.94,3.63 -7.89,5.78 -3.53,2.56 -7.75,5.96 -20.14,16.24 -43.9,26.69 a 2.08,1.29 25.1 0 1 -0.95,0.11 q -1.18,-0.13 -2.26,0.46 -2.05,1.14 -2.87,-1.25 -2.07,-5.97 -6.29,-10.63 a 0.79,0.83 34 0 1 -0.14,-0.83 q 0.8,-2.06 -1.51,-0.56 -4.72,-11.47 -12.29,-21.29 -0.71,-1.8 -1.23,-3.65 -0.56,-1.95 -1.81,-3.25 -5.98,-6.2 -12.75,-11.52 -2.37,-1.86 -6.35,-3.89 -3.34,-1.71 -6.52,-3.73 -2.99,-1.89 -6.49,-2.45 -0.49,-0.08 -0.89,-0.37 -2.98,-2.23 -6.62,-3.14 -7.91,-1.98 -15.76,-4.18 a 0.54,0.58 10.6 0 1 -0.39,-0.62 q 0.13,-1.27 -0.59,-2.3 a 1.7,1.23 35.8 0 1 -0.3,-0.9 q 0.08,-6.47 -0.21,-12.94 -0.12,-2.64 1.44,-4.61 a 1.28,1.08 12 0 1 0.83,-0.44 q 4.71,-0.57 9.13,-2.28 5.46,-2.11 11.08,-3.65 7.48,-2.05 11.08,-3.52 8.75,-3.6 19.14,-8.81 14.93,-7.49 25.85,-18.4 3.62,-3.63 7.24,-7.27 4.13,-4.17 6.76,-7.67 6.01,-7.99 10.61,-16.87 1.89,-3.64 4.9,-11.44 2.24,-5.81 4.76,-11.51 0.7,-1.59 -0.49,-1.94 a 1.51,0.92 68.8 0 1 -0.65,-0.5 q -0.31,-0.41 -0.69,0.35 l 2.58,-10.51 a 0.86,1.11 0.5 0 1 0.57,-0.72 l 0.56,-0.23 q 12.33,-1.04 21.44,-6.35 15.45,-9.02 15.52,-27.94 0.03,-8.09 0.04,-16.17 0.01,-11.51 -1.09,-16.08 -3.71,-15.39 -19.47,-21.94 -1.34,-0.55 -1.23,-1.81 l -0.25,-61.25 q 8.67,-3.19 12.54,-10.43 3.74,-7.01 1.72,-15.01 -2.12,-8.39 -9.9,-12.61 -5.1,-2.76 -10.68,-2.54 -6.01,0.25 -10.86,3.64 -4.41,3.08 -6.84,7.96 -2.58,5.17 -1.94,10.74 1.51,13.25 14.75,18.04 v 59.67 l -4.93,-0.33 a 1.31,1.25 84.1 0 1 -1.14,-0.97 q -11.49,-43.07 -45.77,-68.67 -7.71,-5.76 -16.89,-10.66 -26.33,-14.05 -57.02,-17.83 -38.9,-4.79 -75.63,5.27 -24.47,6.69 -43.56,19.79 -38.74,26.59 -50.3,71.47 a 1.51,1.87 6.1 0 1 -1.37,1.37 l -4.89,0.56 -0.04,-59.46 q 4.25,-1.76 7.62,-4.67 3.34,-2.88 5.21,-7.04 5.77,-12.79 -4.83,-23.79 -1.28,-3.67 -4.46,-4.75 -4.49,-1.52 -10.18,-1.31 -0.05,0.01 -2.11,0.31 -1.39,0.21 -2.75,-0.31 a 1.68,1.21 39.9 0 0 -0.94,-0.07 q -3.79,1.07 -6.52,4.38 -0.81,0.98 -2.06,1.8 -1.57,1.04 -2.18,1.66 -4.9,5.02 -5.26,11.29 -0.93,16.03 13.55,23.04 a 0.59,0.71 15.3 0 1 0.32,0.7 q -0.1,0.83 0.62,1.33 a 1.1,0.81 21 0 1 0.47,0.74 q 0.23,6.39 0.28,12.78 0.01,1.4 0.71,3.18 0.68,1.74 0.74,3.29 0.34,8.83 -0.23,21.13 a 1.7,1.74 62.8 0 1 -0.3,0.9 q -1.14,1.66 -1.16,2.41 -0.15,5.5 -0.13,11 0.02,3.71 -3.28,5.14 -4.14,1.8 -5.28,2.92 -8.08,7.97 -10.7,17.61 -0.68,2.51 -1.85,4.82 -2.41,4.73 -0.45,9.7 0.62,1.57 1.9,8.81 l 0.25,10.5 q -0.81,1.93 -1.19,3.96 -0.35,1.85 0.56,3.92 2.14,4.92 4.17,9.89 1,2.47 2.87,4.4 2.35,2.44 4.65,4.92 0.06,0.05 1.37,1.86 0.78,1.08 2.01,1.54 2.81,1.05 2.91,1.11 5.19,2.8 10.44,3.4 2.64,0.3 4.68,0.83 2.51,0.65 3.73,2.58 1.44,2.27 1.52,5 0.08,2.63 0.54,3.96 3.21,9.28 7.25,18.23 0.69,1.53 2.26,3.29 1.54,1.72 2.27,3.36 2.84,6.34 6.28,10.95 0.92,1.23 2.08,3.33 1.1,1.97 2.45,3.16 4.12,3.59 5.98,6.01 2.27,2.95 5.12,5.32 1.2,0.98 2.86,2.79 1.39,1.51 3.1,2.62 2.04,1.31 3.68,2.83 1.98,1.83 5.01,3.68 12.46,7.59 19.61,11.39 0.03,0.02 3.37,1.55 2.64,1.22 4.78,3.2 1.12,1.03 2.17,1.31 1.28,0.33 2.58,0.4 2.42,0.13 3.76,0.58 7.51,2.5 15.11,4.71 0.28,0.09 4.48,1.69 2.28,0.87 4.77,1.02 a 1.41,1.6 69.5 0 1 0.89,0.34 q 2.24,1.89 2.42,3.37 0.94,7.87 -0.11,16.64 a 1.89,1.89 0 0 1 -1.28,1.57 q -6.96,2.3 -14.6,4.7 -10.62,3.32 -14.7,5.4 -5.55,2.84 -14.29,9.71 -15.18,11.93 -24.17,28.91 -0.04,0.07 -1.95,3.44 -1.36,2.4 -2.18,5.03 -1.57,5.03 -1.78,5.59 -1.01,2.78 -1.81,5.63 -0.17,0.58 -0.31,2.8 -0.18,2.78 -3.53,1.06 -7.38,-3.79 -14.92,-7.27 -3.95,-1.82 -9.43,-5.4 -7.09,-4.63 -11.81,-7.83 -3.55,-2.4 -11.31,-8.52 -7.45,-5.87 -15.4,-11.07 -3.48,-2.28 -6.14,-4.61 -2.89,-2.54 -5.75,-5.11 -0.08,-0.07 -5.14,-4.22 -2.9,-2.37 -5.26,-5.34 -1.11,-1.4 -2.38,-2.62 -1.69,-1.62 -2.44,-2.53 -5.49,-6.64 -10.39,-13.72 -5.44,-7.88 -9.98,-13.98 -20.32,-27.3 -32.29,-59.26 -1.35,-3.61 -4.09,-9.96 -2.76,-6.39 -3.31,-10.29 -0.48,-3.38 -2.25,-6.25 -0.6,-0.98 -0.81,-2.06 -0.4599996,-2.42 -2.1899996,-4.15 -19.8100004,-81.38 8.2899996,-160.04 l 4.2,-6.57 a 1.59,1.09 66.1 0 0 0.17,-0.92 q -0.17,-1.36 0.88,-2.27 0.43,-0.37 0.59,-0.76 9.5,-22.67 22.84,-43.22 3.71,-5.71 10.24,-13.96 6.07,-7.68 10.6,-13.74 10.46,-14.000003 22.92,-25.070003 12.94,-11.5 26.92,-21.66 11.64,-8.47 16.28,-11.59 14.78,-9.94 33.51,-18.05 16.37,-7.1 25.99,-10.11 0.02,-0.01 2.17,-0.58 2.76,-0.73 6.01,-2.66 0.45,-0.26 0.96,-0.34 6.29,-0.94 10.68,-2.4999999 1.28,-0.46 4.5,-1 4.07,-0.69 8.05,-1.75 0.12,-0.03 2.31,-0.34 1.29,-0.18 2.29,-1.06 a 1.16,1.35 27.4 0 1 0.84,-0.34 q 4.1,0.06 7.51,-2.05 l 5.75,-0.92 q 3.39,0.59 4.75,0.46 28.95,-2.83999997 55,-0.25 11.06,1.1 25.65,4.29 0.28,0.06 5.75,1.61 1.93,0.54 3.92,0.82 3.01,0.43 3.96,0.63 5.45,1.1399999 10.89,2.3499999 0.1,0.02 2.69,0.38 1.5,0.21 2.84,0.94 1.77,0.94 2.66,1.21 11.91,3.54 23.24,8.63 4.95,2.22 9.94,4.35 0.07,0.04 2.7,1.37 1.47,0.75 3.1,1.05 2.02,0.37 3.05,0.88 2.09,1.04 4.08,2.23 0.14,0.08 4.23,2.18 1.63,0.84 3.01,2.05 1.78,1.57 2.85,2.21 11.36,6.85 22.02,14.74 0.32,0.24 3.34,3.17 1.69,1.65 4.05,2.45 a 0.35,0.39 11.7 0 0 0.46,-0.34 q 0.08,-0.69 0.76,-0.14 10.2,8.32 14.87,12.63 0.57,0.52 1.08,1.65 0.44,0.98 1.07,1.58 5.63,5.31 11.1,10.77 0.23,0.23 3.83,3.09 1.65,1.31 3.55,3.53 4.43,5.2 8.81,10.440003 0.44,0.53 0.52,1 0.13,0.76 0.24,0.93 4.29,7.08 10.43,15.13 6.54,8.6 12.72,19.57 10.5,18.67 18.42,38.54 0.74,1.84 1.26,4.81 0.47,2.69 1.35,4.83 3.93,9.59 6.24,19.05 3.56,14.5 3.6,14.67 2.56,9.77 3.47,16.97 1.29,10.17 2.18,15.1 0.25,1.36 0.11,3.3 -0.12,1.69 0.15,3.36 0.03,0.21 0.2,2.99 0.1,1.6 1.23,2.67 a 1.19,1.19 0 0 1 0.36,0.83 z"
       id="path136" /><path
       fill="#0d82e2"
       d="m 236.94111,2.9735571 q -3.41,2.11 -7.51,2.05 a 1.16,1.35 27.4 0 0 -0.84,0.34 q -1,0.88 -2.29,1.06 -2.19,0.31 -2.31,0.34 -3.98,1.06 -8.05,1.75 -3.22,0.54 -4.5,1 -4.39,1.5599999 -10.68,2.4999999 -0.51,0.08 -0.96,0.34 -3.25,1.93 -6.01,2.66 -2.15,0.57 -2.17,0.58 -9.62,3.01 -25.99,10.11 -18.73,8.11 -33.51,18.05 -4.64,3.12 -16.28,11.59 -13.98,10.16 -26.92,21.66 -12.46,11.07 -22.92,25.070003 -4.53,6.06 -10.6,13.74 -6.53,8.25 -10.24,13.96 -13.34,20.55 -22.84,43.22 -0.16,0.39 -0.59,0.76 -1.05,0.91 -0.88,2.27 a 1.59,1.09 66.1 0 1 -0.17,0.92 l -4.2,6.57 q 9.13,-25.98 23.47,-49.49 44.01,-72.150003 120.52,-108.200003 36.49,-17.1999999 76.47,-22.8499999 z"
       id="path138" /><path
       fill="#0d82e2"
       d="m 134.65111,141.76356 q -5.89,-5.01 -13.02,-5.19 -10.52,-0.27 -17.01,8.34 -4.57,6.07 -4.18,12.6 0.85,14.36 14.79,19.75 v 62.75 q -0.13,0.6 -1.04,1 -18.58,8.23 -20.5,29 -0.39,4.28 -0.29,14.25 -1.28,-7.24 -1.9,-8.81 -1.96,-4.97 0.45,-9.7 1.17,-2.31 1.85,-4.82 2.62,-9.64 10.7,-17.61 1.14,-1.12 5.28,-2.92 3.3,-1.43 3.28,-5.14 -0.02,-5.5 0.13,-11 0.02,-0.75 1.16,-2.41 a 1.7,1.74 62.8 0 0 0.3,-0.9 q 0.57,-12.3 0.23,-21.13 -0.06,-1.55 -0.74,-3.29 -0.7,-1.78 -0.71,-3.18 -0.05,-6.39 -0.28,-12.78 a 1.1,0.81 21 0 0 -0.47,-0.74 q -0.72,-0.5 -0.62,-1.33 a 0.59,0.71 15.3 0 0 -0.32,-0.7 q -14.48,-7.01 -13.55,-23.04 0.36,-6.27 5.26,-11.29 0.61,-0.62 2.18,-1.66 1.25,-0.82 2.06,-1.8 2.73,-3.31 6.52,-4.38 a 1.68,1.21 39.9 0 1 0.94,0.07 q 1.36,0.52 2.75,0.31 2.06,-0.3 2.11,-0.31 5.69,-0.21 10.18,1.31 3.18,1.08 4.46,4.75 z"
       id="path140" /><path
       fill="#ffffff"
       d="m 134.65111,141.76356 q 10.6,11 4.83,23.79 -1.87,4.16 -5.21,7.04 -3.37,2.91 -7.62,4.67 -5.71,1.04 -11.42,0 -13.94,-5.39 -14.79,-19.75 -0.39,-6.53 4.18,-12.6 6.49,-8.61 17.01,-8.34 7.13,0.18 13.02,5.19 z"
       id="path142" /><path
       fill="#ffffff"
       d="m 428.19111,236.72356 q 4.88,1.02 9.75,2.04 0.69,0.14 1.71,-0.25 -0.11,1.26 1.23,1.81 15.76,6.55 19.47,21.94 1.1,4.57 1.09,16.08 -0.01,8.08 -0.04,16.17 -0.07,18.92 -15.52,27.94 -9.11,5.31 -21.44,6.35 -1.34,-0.73 -0.96,-2.02 0.28,-0.98 0.3,-1.09 1.57,-9.75 1.9,-19.6 0.17,-5.13 0.36,-19.66 0.21,-16.52 -2.03,-32.93 -0.07,-0.49 -0.22,-0.01 -2.01,6.37 -3.13,12.96 -1.09,6.38 -4.21,12.03 -3.77,6.83 -7.55,13.65 -4.39,7.94 -8.53,13 -6.01,7.34 -13.03,13.77 -0.59,0.54 -1.36,0.61 3.08,-27.09 1.82,-54.27 -0.56,-12.08 -2.47,-19.8 -9.05,-36.66 -46.59,-49.83 -14,-4.91 -27.55,-6.6 -30.38,-3.8 -62.02,-0.67 -16.54,1.64 -34.73,8.17 -26.99,9.69 -39.21,33.41 -4.37,8.49 -6.58,18.81 -2.08,9.78 -2.21,20.28 -0.33,26.76 2.5,51.21 -0.7,-0.12 -2,-1.46 -21.79,-22.44 -31.54,-50.32 -2.89,-8.29 -4.56,-16.91 -0.11,-0.56 -0.37,-0.48 a 0.67,0.38 89.5 0 0 -0.31,0.56 q -2.9,37.37 0.73,74.66 a 1.84,0.94 37.8 0 0 0.4,0.86 q 0.69,0.87 -0.1,1.67 -11.97,-1.02 -21.19,-6.6 -15.03,-9.12 -16.35,-27.44 l -0.25,-10.5 q -0.1,-9.97 0.29,-14.25 1.92,-20.77 20.5,-29 0.91,-0.4 1.04,-1 l 11.46,-3.29 4.89,-0.56 a 1.51,1.87 6.1 0 0 1.37,-1.37 q 11.56,-44.88 50.3,-71.47 19.09,-13.1 43.56,-19.79 36.73,-10.06 75.63,-5.27 30.69,3.78 57.02,17.83 9.18,4.9 16.89,10.66 34.28,25.6 45.77,68.67 a 1.31,1.25 84.1 0 0 1.14,0.97 z"
       id="path144" /><path
       fill="#ffffff"
       d="m 439.40111,177.26356 q -5.63,0.89 -11.21,-0.21 -13.24,-4.79 -14.75,-18.04 -0.64,-5.57 1.94,-10.74 2.43,-4.88 6.84,-7.96 4.85,-3.39 10.86,-3.64 5.58,-0.22 10.68,2.54 7.78,4.22 9.9,12.61 2.02,8 -1.72,15.01 -3.87,7.24 -12.54,10.43 z"
       id="path146" /><path
       fill="#cfebff"
       d="m 428.19111,177.05356 q 5.58,1.1 11.21,0.21 l 0.25,61.25 q -1.02,0.39 -1.71,0.25 -4.87,-1.02 -9.75,-2.04 z"
       id="path148" /><path
       fill="#cfebff"
       d="m 115.23111,177.26356 q 5.71,1.04 11.42,0 l 0.04,59.46 -11.46,3.29 z"
       id="path150" /><path
       fill="#d7eefe"
       d="m 385.98111,319.51356 -1,3.75 q -1.54,-1.32 -2.66,-0.14 -0.91,0.95 -1,1.02 -30.88,24.33 -70.63,31.12 -18.07,3.09 -35.26,2.74 -9.85,-0.19 -19.97,-1.17 -47.52,-4.59 -84.21,-34.63 -1.3,-1.07 -1.81,-1.15 l -0.5,-0.83 q -2.83,-24.45 -2.5,-51.21 0.13,-10.5 2.21,-20.28 2.21,-10.32 6.58,-18.81 12.22,-23.72 39.21,-33.41 18.19,-6.53 34.73,-8.17 31.64,-3.13 62.02,0.67 13.55,1.69 27.55,6.6 37.54,13.17 46.59,49.83 1.91,7.72 2.47,19.8 1.26,27.18 -1.82,54.27 z m -147.43,-36.81 a 17.36,17.36 0 0 0 -17.36,-17.36 17.36,17.36 0 0 0 -17.36,17.36 17.36,17.36 0 0 0 17.36,17.36 17.36,17.36 0 0 0 17.36,-17.36 z m 112.54,-0.04 a 17.37,17.37 0 0 0 -17.37,-17.37 17.37,17.37 0 0 0 -17.37,17.37 17.37,17.37 0 0 0 17.37,17.37 17.37,17.37 0 0 0 17.37,-17.37 z"
       id="path152" /><path
       fill="#edf2f5"
       d="m 168.94111,320.22356 0.5,0.83 q 8.17,31.17 34.71,49.24 17.58,11.98 39.48,16.78 44.07,9.67 85.27,-5.27 5.72,-2.08 10.72,-4.76 5.18,-2.77 10.09,-6.03 26.28,-17.43 35.27,-47.75 l 1,-3.75 q 0.77,-0.07 1.36,-0.61 7.02,-6.43 13.03,-13.77 4.14,-5.06 8.53,-13 3.78,-6.82 7.55,-13.65 3.12,-5.65 4.21,-12.03 1.12,-6.59 3.13,-12.96 0.15,-0.48 0.22,0.01 2.24,16.41 2.03,32.93 -0.19,14.53 -0.36,19.66 -0.33,9.85 -1.9,19.6 -0.02,0.11 -0.3,1.09 -0.38,1.29 0.96,2.02 l -0.56,0.23 a 0.86,1.11 0.5 0 0 -0.57,0.72 l -2.58,10.51 q -15.66,49.63 -61.48,74.06 -22.79,12.16 -48.31,16.43 -1.44,0.24 -2.75,0.8 -28.95,3.94 -57.9,0.38 -0.45,-0.05 -2.57,-0.76 -1.31,-0.43 -2.78,-0.12 -11.79,-2.09 -23.25,-5.58 -0.96,-0.87 -2.25,-0.67 -13.52,-4.84 -24.5,-10.79 -49.88,-27.01 -63,-82.75 -0.5,-2.12 -0.75,-2.46 0.79,-0.8 0.1,-1.67 a 1.84,0.94 37.8 0 1 -0.4,-0.86 q -3.63,-37.29 -0.73,-74.66 a 0.67,0.38 89.5 0 1 0.31,-0.56 q 0.26,-0.08 0.37,0.48 1.67,8.62 4.56,16.91 9.75,27.88 31.54,50.32 1.3,1.34 2,1.46 z"
       id="path154"
       style="fill:#bccfda;fill-opacity:1" /><path
       fill="#0e70dd"
       d="m 238.55111,282.70356 a 17.36,17.36 0 0 1 -17.36,17.36 17.36,17.36 0 0 1 -17.36,-17.36 17.36,17.36 0 0 1 17.36,-17.36 17.36,17.36 0 0 1 17.36,17.36 z m -22.7348,14.3724 a 15.17,15.69 19.8 0 0 19.588,-9.6237 15.17,15.69 19.8 0 0 -8.9584,-19.9011 15.17,15.69 19.8 0 0 -19.588,9.6237 15.17,15.69 19.8 0 0 8.9584,19.9011 z"
       id="path156" /><path
       fill="#0e70dd"
       d="m 351.09111,282.66356 a 17.37,17.37 0 0 1 -17.37,17.37 17.37,17.37 0 0 1 -17.37,-17.37 17.37,17.37 0 0 1 17.37,-17.37 17.37,17.37 0 0 1 17.37,17.37 z m -15.9405,15.1634 a 15.5,15.17 84.3 0 0 13.5555,-16.9301 15.5,15.17 84.3 0 0 -16.6345,-13.9167 15.5,15.17 84.3 0 0 -13.5555,16.9301 15.5,15.17 84.3 0 0 16.6345,13.9167 z"
       id="path158" /><ellipse
       fill="#0177ff"
       cx="190.71791"
       cy="-303.68832"
       transform="rotate(109.8)"
       rx="15.69"
       ry="15.17"
       id="ellipse160" /><ellipse
       fill="#0177ff"
       cx="314.14142"
       cy="-303.91333"
       transform="rotate(84.3)"
       rx="15.5"
       ry="15.17"
       id="ellipse162" /><path
       fill="#0d82e2"
       d="m 554.69111,278.80356 q 0.04,40.79 -12.01,79.71 -20.18,65.2 -68.07,113.67 -37.33,37.8 -86.64,59.56 a 0.76,0.77 73 0 1 -1.06,-0.56 q -1.65,-9.02 -4.97,-18.13 2.31,-1.5 1.51,0.56 a 0.79,0.83 34 0 0 0.14,0.83 q 4.22,4.66 6.29,10.63 0.82,2.39 2.87,1.25 1.08,-0.59 2.26,-0.46 a 2.08,1.29 25.1 0 0 0.95,-0.11 q 23.76,-10.45 43.9,-26.69 4.22,-3.4 7.75,-5.96 2.95,-2.15 7.89,-5.78 10.65,-7.81 18.7,-16.41 0.05,-0.05 3.14,-4.07 1.78,-2.31 4.35,-3.83 1.2,-0.71 3.82,-4.58 2.08,-3.07 3.42,-4.84 4.74,-6.2 9.33,-12.52 0.11,-0.15 6.63,-8.86 5.43,-7.25 9.96,-15.08 3.65,-6.32 8.65,-15.83 9.31,-17.73 15.09,-37 2.26,-7.54 4.53,-15.08 0.21,-0.67 1.23,-5.51 0.5,-2.38 1.59,-5.45 1.17,-3.29 2.54,-11.24 2.11,-12.19 3.7,-24.45 0.22,-1.7 0.39,-8.16 0.11,-4.11 1.14,-8.15 0.93,-3.65 0.98,-7.46 z"
       id="path164" /><path
       fill="#0d82e2"
       d="m 93.65111,294.76356 q 1.32,18.32 16.35,27.44 9.22,5.58 21.19,6.6 0.25,0.34 0.75,2.46 13.12,55.74 63,82.75 10.98,5.95 24.5,10.79 0.82,1.07 2.25,0.67 11.46,3.49 23.25,5.58 l 1.2,0.41 a 0.73,0.61 11.2 0 1 0.49,0.61 l 0.06,25.15 q -2.47,0.75 -5,1.3 -25.93,5.72 -45.63,22.48 -8.1,6.9 -13.55,14.64 -10.75,15.27 -14.35,35.19 a 1.11,1.11 0 0 1 -1.54,0.82 q -73.3,-32.29 -118.99,-99.08 -27.6,-40.34 -39.4399996,-89.02 1.73,1.73 2.1899996,4.15 0.21,1.08 0.81,2.06 1.77,2.87 2.25,6.25 0.55,3.9 3.31,10.29 2.74,6.35 4.09,9.96 11.97,31.96 32.29,59.26 4.54,6.1 9.98,13.98 4.9,7.08 10.39,13.72 0.75,0.91 2.44,2.53 1.27,1.22 2.38,2.62 2.36,2.97 5.26,5.34 5.06,4.15 5.14,4.22 2.86,2.57 5.75,5.11 2.66,2.33 6.14,4.61 7.95,5.2 15.4,11.07 7.76,6.12 11.31,8.52 4.72,3.2 11.81,7.83 5.48,3.58 9.43,5.4 7.54,3.48 14.92,7.27 3.35,1.72 3.53,-1.06 0.14,-2.22 0.31,-2.8 0.8,-2.85 1.81,-5.63 0.21,-0.56 1.78,-5.59 0.82,-2.63 2.18,-5.03 1.91,-3.37 1.95,-3.44 8.99,-16.98 24.17,-28.91 8.74,-6.87 14.29,-9.71 4.08,-2.08 14.7,-5.4 7.64,-2.4 14.6,-4.7 a 1.89,1.89 0 0 0 1.28,-1.57 q 1.05,-8.77 0.11,-16.64 -0.18,-1.48 -2.42,-3.37 a 1.41,1.6 69.5 0 0 -0.89,-0.34 q -2.49,-0.15 -4.77,-1.02 -4.2,-1.6 -4.48,-1.69 -7.6,-2.21 -15.11,-4.71 -1.34,-0.45 -3.76,-0.58 -1.3,-0.07 -2.58,-0.4 -1.05,-0.28 -2.17,-1.31 -2.14,-1.98 -4.78,-3.2 -3.34,-1.53 -3.37,-1.55 -7.15,-3.8 -19.61,-11.39 -3.03,-1.85 -5.01,-3.68 -1.64,-1.52 -3.68,-2.83 -1.71,-1.11 -3.1,-2.62 -1.66,-1.81 -2.86,-2.79 -2.85,-2.37 -5.12,-5.32 -1.86,-2.42 -5.98,-6.01 -1.35,-1.19 -2.45,-3.16 -1.16,-2.1 -2.08,-3.33 -3.44,-4.61 -6.28,-10.95 -0.73,-1.64 -2.27,-3.36 -1.57,-1.76 -2.26,-3.29 -4.04,-8.95 -7.25,-18.23 -0.46,-1.33 -0.54,-3.96 -0.08,-2.73 -1.52,-5 -1.22,-1.93 -3.73,-2.58 -2.04,-0.53 -4.68,-0.83 -5.25,-0.6 -10.44,-3.4 -0.1,-0.06 -2.91,-1.11 -1.23,-0.46 -2.01,-1.54 -1.31,-1.81 -1.37,-1.86 -2.3,-2.48 -4.65,-4.92 -1.87,-1.93 -2.87,-4.4 -2.03,-4.97 -4.17,-9.89 -0.91,-2.07 -0.56,-3.92 0.38,-2.03 1.19,-3.96 z"
       id="path166" /><path
       fill="#cae5f8"
       d="m 169.44111,321.05356 q 0.51,0.08 1.81,1.15 36.69,30.04 84.21,34.63 10.12,0.98 19.97,1.17 17.19,0.35 35.26,-2.74 39.75,-6.79 70.63,-31.12 0.09,-0.07 1,-1.02 1.12,-1.18 2.66,0.14 -8.99,30.32 -35.27,47.75 -4.91,3.26 -10.09,6.03 -5,2.68 -10.72,4.76 -41.2,14.94 -85.27,5.27 -21.9,-4.8 -39.48,-16.78 -26.54,-18.07 -34.71,-49.24 z"
       id="path168"
       style="fill:#648399;fill-opacity:1" /><path
       fill="#0d82e2"
       d="m 369.65111,491.76356 q -14.59,-17.18 -34.77,-25.94 -12.24,-5.31 -26.69,-8.85 v -25.42 q 1.31,-0.56 2.75,-0.8 25.52,-4.27 48.31,-16.43 45.82,-24.43 61.48,-74.06 0.38,-0.76 0.69,-0.35 a 1.51,0.92 68.8 0 0 0.65,0.5 q 1.19,0.35 0.49,1.94 -2.52,5.7 -4.76,11.51 -3.01,7.8 -4.9,11.44 -4.6,8.88 -10.61,16.87 -2.63,3.5 -6.76,7.67 -3.62,3.64 -7.24,7.27 -10.92,10.91 -25.85,18.4 -10.39,5.21 -19.14,8.81 -3.6,1.47 -11.08,3.52 -5.62,1.54 -11.08,3.65 -4.42,1.71 -9.13,2.28 a 1.28,1.08 12 0 0 -0.83,0.44 q -1.56,1.97 -1.44,4.61 0.29,6.47 0.21,12.94 a 1.7,1.23 35.8 0 0 0.3,0.9 q 0.72,1.03 0.59,2.3 a 0.54,0.58 10.6 0 0 0.39,0.62 q 7.85,2.2 15.76,4.18 3.64,0.91 6.62,3.14 0.4,0.29 0.89,0.37 3.5,0.56 6.49,2.45 3.18,2.02 6.52,3.73 3.98,2.03 6.35,3.89 6.77,5.32 12.75,11.52 1.25,1.3 1.81,3.25 0.52,1.85 1.23,3.65 z"
       id="path170" /><path
       fill="#0d82e2"
       d="m 219.44111,424.80356 q 1.29,-0.2 2.25,0.67 -1.43,0.4 -2.25,-0.67 z"
       id="path172" /><path
       fill="#cae5f8"
       d="m 244.94111,431.05356 q 1.47,-0.31 2.78,0.12 2.12,0.71 2.57,0.76 28.95,3.56 57.9,-0.38 v 25.42 q -5.42,-0.7 -10.84,-1.45 -6.56,-0.91 -10.86,-1.12 -20.04,-1.01 -39.8,2.82 l -0.06,-25.15 a 0.73,0.61 11.2 0 0 -0.49,-0.61 z"
       id="path174"
       style="fill:#ffffff;fill-opacity:1" /><path
       style="opacity:0.347;fill:#bccfda;fill-opacity:1;stroke:none;stroke-width:49.3375;stroke-linecap:square;stroke-miterlimit:3.9;stroke-dasharray:49.3375, 0, 49.3375;stroke-dashoffset:271.356;stroke-opacity:1;paint-order:markers stroke fill"
       d="m 166.96777,531.08293 c 0,0 62.7109,23.12465 116.40711,23.12465 53.6962,0 103.86493,-22.73271 103.86493,-22.73271 0,0 -2.35166,-77.21279 -112.09574,-76.03696 -109.74407,1.17583 -108.1763,75.64502 -108.1763,75.64502 z"
       id="path7138" /></g><g
     id="g5957"
     transform="matrix(1.1991254,0,0,1.1991254,9.4843343,-6.1007211)"
     style="display:inline;fill:#02156c;fill-opacity:1"><path
       d="M 12.13,14 H 12 11.87 L 7,12.63 V 16 c 0,1.1 2.24,2 5,2 2.76,0 5,-0.9 5,-2 v -3.37 z"
       fill="#3366cc"
       id="path5942"
       style="fill:#02156c;fill-opacity:1" /><path
       d="m 21.13,9.52 -9,-2.5 a 0.39,0.39 0 0 0 -0.26,0 l -9,2.5 a 0.5,0.5 0 0 0 0,1 l 9,2.5 L 12,13 h 0.13 l 9,-2.5 a 0.5,0.5 0 0 0 0,-1 z"
       fill="#3366cc"
       id="path5944"
       style="fill:#02156c;fill-opacity:1" /><path
       d="M 19.5,14.5 A 1,1 0 0 0 19,13.65 V 10 h -1 v 3.65 a 1,1 0 0 0 -0.5,0.85 1,1 0 0 0 0.45,0.81 L 17.5,18 c 0,0.37 0.45,0.67 1,0.67 0.55,0 1,-0.3 1,-0.67 L 19.05,15.31 A 1,1 0 0 0 19.5,14.5 Z"
       fill="#3366cc"
       id="path5946"
       style="fill:#02156c;fill-opacity:1" /></g></svg>
